<?xml version="1.0" encoding="UTF-8"?>
<svg xmlns="http://www.w3.org/2000/svg" xmlns:xlink="http://www.w3.org/1999/xlink" width="1071px" height="600px" viewBox="0 0 1070 600" version="1.1">
<g id="surface1">
<path style=" stroke:none;fill-rule:nonzero;fill:rgb(24.705882%,23.921569%,33.72549%);fill-opacity:1;" d="M 660.214844 1 C 659.652344 0.65625 659.089844 0.324219 658.523438 0 L 599.644531 0 C 599.21875 0.664062 598.816406 1.339844 598.425781 2.015625 L 661.910156 2.015625 C 661.34375 1.675781 660.78125 1.339844 660.214844 1 Z M 270.804688 200.128906 L 270.804688 215.152344 C 271.058594 215.171875 271.320312 215.171875 271.570312 215.183594 L 271.066406 244.0625 L 270.804688 243.921875 L 270.804688 246.765625 L 271.015625 246.878906 L 270.804688 258.988281 L 270.804688 300.734375 L 272.820312 300.734375 L 272.820312 193.320312 C 272.253906 195.5 271.585938 197.769531 270.804688 200.128906 Z M 660.214844 1 C 659.652344 0.65625 659.089844 0.324219 658.523438 0 L 599.644531 0 C 599.21875 0.664062 598.816406 1.339844 598.425781 2.015625 L 661.910156 2.015625 C 661.34375 1.675781 660.78125 1.339844 660.214844 1 Z M 838.046875 0 L 277.859375 0 C 273.964844 0.00390625 270.808594 3.164062 270.804688 7.058594 L 270.804688 592.941406 C 270.8125 596.835938 273.964844 599.992188 277.859375 600 L 838.046875 600 C 841.9375 599.996094 845.09375 596.839844 845.097656 592.941406 L 845.097656 7.058594 C 845.09375 3.160156 841.9375 0.00390625 838.046875 0 Z M 843.082031 592.941406 C 843.082031 595.726562 840.828125 597.980469 838.046875 597.984375 L 277.859375 597.984375 C 275.074219 597.980469 272.820312 595.726562 272.820312 592.941406 L 272.820312 7.058594 C 272.824219 4.277344 275.078125 2.019531 277.859375 2.015625 L 838.046875 2.015625 C 840.828125 2.019531 843.078125 4.277344 843.082031 7.058594 Z M 843.082031 592.941406 "/>
<path style=" stroke:none;fill-rule:nonzero;fill:rgb(94.901961%,94.901961%,94.901961%);fill-opacity:1;" d="M 351.679688 437.660156 C 325.578125 437.035156 297.597656 451.671875 290.167969 476.722656 L 431.851562 470.953125 C 429.171875 469.097656 426.480469 467.265625 423.777344 465.460938 C 402.039062 450.988281 377.777344 438.285156 351.679688 437.660156 Z M 351.679688 437.660156 "/>
<path style=" stroke:none;fill-rule:nonzero;fill:rgb(94.901961%,94.901961%,94.901961%);fill-opacity:1;" d="M 431.851562 470.953125 C 450.695312 483.984375 469.082031 497.898438 490.074219 506.945312 C 542.058594 529.351562 601.898438 518.902344 656.59375 504.339844 C 711.292969 489.777344 767.125 471.273438 823.222656 478.777344 C 855.035156 483.035156 885.066406 495.492188 915.773438 504.835938 C 946.480469 514.183594 979.519531 520.441406 1010.5 512.050781 C 1041.476562 503.660156 1069.421875 477.054688 1070.230469 444.941406 C 836.351562 401.660156 619.515625 400.375 431.851562 470.953125 Z M 431.851562 470.953125 "/>
<path style=" stroke:none;fill-rule:nonzero;fill:rgb(94.901961%,94.901961%,94.901961%);fill-opacity:1;" d="M 61.507812 484.046875 C 35.410156 483.421875 7.425781 498.058594 0 523.109375 L 141.683594 517.339844 C 139.003906 515.484375 136.3125 513.652344 133.609375 511.847656 C 111.871094 497.375 87.609375 484.671875 61.507812 484.046875 Z M 61.507812 484.046875 "/>
<path style=" stroke:none;fill-rule:nonzero;fill:rgb(94.901961%,94.901961%,94.901961%);fill-opacity:1;" d="M 141.683594 517.339844 C 160.523438 530.371094 178.914062 544.285156 199.90625 553.332031 C 251.886719 575.738281 311.730469 565.289062 366.425781 550.726562 C 421.121094 536.164062 476.957031 517.660156 533.054688 525.164062 C 564.867188 529.421875 594.898438 541.878906 625.605469 551.222656 C 656.3125 560.570312 689.347656 566.828125 720.328125 558.4375 C 751.308594 550.046875 779.253906 523.4375 780.0625 491.328125 C 546.179688 448.046875 329.347656 446.761719 141.683594 517.339844 Z M 141.683594 517.339844 "/>
<path style=" stroke:none;fill-rule:nonzero;fill:rgb(90.196078%,90.196078%,90.196078%);fill-opacity:1;" d="M 455.742188 301.378906 L 309.289062 301.378906 C 304.9375 301.382812 301.414062 304.910156 301.410156 309.265625 L 301.410156 362.671875 C 301.414062 367.023438 304.9375 370.554688 309.289062 370.554688 L 455.742188 370.554688 C 460.09375 370.554688 463.621094 367.023438 463.621094 362.671875 L 463.621094 309.265625 C 463.621094 304.910156 460.09375 301.382812 455.742188 301.378906 Z M 455.742188 301.378906 "/>
<path style=" stroke:none;fill-rule:nonzero;fill:rgb(80%,80%,80%);fill-opacity:1;" d="M 311.988281 301.378906 L 316.019531 301.378906 L 316.019531 370.554688 L 311.988281 370.554688 Z M 311.988281 301.378906 "/>
<path style=" stroke:none;fill-rule:nonzero;fill:rgb(80%,80%,80%);fill-opacity:1;" d="M 329.117188 301.378906 L 333.148438 301.378906 L 333.148438 370.554688 L 329.117188 370.554688 Z M 329.117188 301.378906 "/>
<path style=" stroke:none;fill-rule:nonzero;fill:rgb(80%,80%,80%);fill-opacity:1;" d="M 346.246094 301.378906 L 350.277344 301.378906 L 350.277344 370.554688 L 346.246094 370.554688 Z M 346.246094 301.378906 "/>
<path style=" stroke:none;fill-rule:nonzero;fill:rgb(80%,80%,80%);fill-opacity:1;" d="M 363.375 301.378906 L 367.402344 301.378906 L 367.402344 370.554688 L 363.375 370.554688 Z M 363.375 301.378906 "/>
<path style=" stroke:none;fill-rule:nonzero;fill:rgb(80%,80%,80%);fill-opacity:1;" d="M 380.5 301.378906 L 384.53125 301.378906 L 384.53125 370.554688 L 380.5 370.554688 Z M 380.5 301.378906 "/>
<path style=" stroke:none;fill-rule:nonzero;fill:rgb(80%,80%,80%);fill-opacity:1;" d="M 397.628906 301.378906 L 401.660156 301.378906 L 401.660156 370.554688 L 397.628906 370.554688 Z M 397.628906 301.378906 "/>
<path style=" stroke:none;fill-rule:nonzero;fill:rgb(80%,80%,80%);fill-opacity:1;" d="M 414.757812 301.378906 L 418.789062 301.378906 L 418.789062 370.554688 L 414.757812 370.554688 Z M 414.757812 301.378906 "/>
<path style=" stroke:none;fill-rule:nonzero;fill:rgb(80%,80%,80%);fill-opacity:1;" d="M 431.886719 301.378906 L 435.914062 301.378906 L 435.914062 370.554688 L 431.886719 370.554688 Z M 431.886719 301.378906 "/>
<path style=" stroke:none;fill-rule:nonzero;fill:rgb(80%,80%,80%);fill-opacity:1;" d="M 449.015625 301.378906 L 453.042969 301.378906 L 453.042969 370.554688 L 449.015625 370.554688 Z M 449.015625 301.378906 "/>
<path style=" stroke:none;fill-rule:nonzero;fill:rgb(90.196078%,90.196078%,90.196078%);fill-opacity:1;" d="M 606.925781 176.464844 L 588.941406 137.746094 C 586.25 131.945312 580.4375 128.238281 574.046875 128.238281 L 552.863281 128.238281 C 557.28125 120.609375 555.582031 110.90625 548.839844 105.234375 C 542.09375 99.5625 532.253906 99.5625 525.507812 105.234375 C 518.761719 110.90625 517.066406 120.609375 521.484375 128.238281 L 500.296875 128.238281 C 493.90625 128.238281 488.097656 131.945312 485.402344 137.746094 L 467.421875 176.464844 C 465.058594 181.558594 465.453125 187.503906 468.46875 192.234375 C 471.484375 196.96875 476.707031 199.832031 482.316406 199.832031 L 532.136719 199.832031 L 532.136719 387.398438 L 542.210938 387.398438 L 542.210938 199.832031 L 592.03125 199.832031 C 597.636719 199.832031 602.859375 196.96875 605.875 192.234375 C 608.894531 187.503906 609.289062 181.558594 606.925781 176.464844 Z M 606.925781 176.464844 "/>
<path style=" stroke:none;fill-rule:nonzero;fill:rgb(90.196078%,90.196078%,90.196078%);fill-opacity:1;" d="M 815.433594 301.378906 L 668.976562 301.378906 C 664.628906 301.382812 661.101562 304.910156 661.097656 309.265625 L 661.097656 362.671875 C 661.101562 367.023438 664.628906 370.554688 668.976562 370.554688 L 815.433594 370.554688 C 819.785156 370.554688 823.308594 367.023438 823.3125 362.671875 L 823.3125 309.265625 C 823.308594 304.910156 819.785156 301.382812 815.433594 301.378906 Z M 815.433594 301.378906 "/>
<path style=" stroke:none;fill-rule:nonzero;fill:rgb(80%,80%,80%);fill-opacity:1;" d="M 671.679688 301.378906 L 675.707031 301.378906 L 675.707031 370.554688 L 671.679688 370.554688 Z M 671.679688 301.378906 "/>
<path style=" stroke:none;fill-rule:nonzero;fill:rgb(80%,80%,80%);fill-opacity:1;" d="M 688.804688 301.378906 L 692.835938 301.378906 L 692.835938 370.554688 L 688.804688 370.554688 Z M 688.804688 301.378906 "/>
<path style=" stroke:none;fill-rule:nonzero;fill:rgb(80%,80%,80%);fill-opacity:1;" d="M 705.933594 301.378906 L 709.964844 301.378906 L 709.964844 370.554688 L 705.933594 370.554688 Z M 705.933594 301.378906 "/>
<path style=" stroke:none;fill-rule:nonzero;fill:rgb(80%,80%,80%);fill-opacity:1;" d="M 723.0625 301.378906 L 727.09375 301.378906 L 727.09375 370.554688 L 723.0625 370.554688 Z M 723.0625 301.378906 "/>
<path style=" stroke:none;fill-rule:nonzero;fill:rgb(80%,80%,80%);fill-opacity:1;" d="M 740.191406 301.378906 L 744.222656 301.378906 L 744.222656 370.554688 L 740.191406 370.554688 Z M 740.191406 301.378906 "/>
<path style=" stroke:none;fill-rule:nonzero;fill:rgb(80%,80%,80%);fill-opacity:1;" d="M 757.320312 301.378906 L 761.347656 301.378906 L 761.347656 370.554688 L 757.320312 370.554688 Z M 757.320312 301.378906 "/>
<path style=" stroke:none;fill-rule:nonzero;fill:rgb(80%,80%,80%);fill-opacity:1;" d="M 774.445312 301.378906 L 778.476562 301.378906 L 778.476562 370.554688 L 774.445312 370.554688 Z M 774.445312 301.378906 "/>
<path style=" stroke:none;fill-rule:nonzero;fill:rgb(80%,80%,80%);fill-opacity:1;" d="M 791.574219 301.378906 L 795.605469 301.378906 L 795.605469 370.554688 L 791.574219 370.554688 Z M 791.574219 301.378906 "/>
<path style=" stroke:none;fill-rule:nonzero;fill:rgb(80%,80%,80%);fill-opacity:1;" d="M 808.703125 301.378906 L 812.734375 301.378906 L 812.734375 370.554688 L 808.703125 370.554688 Z M 808.703125 301.378906 "/>
<path style=" stroke:none;fill-rule:nonzero;fill:rgb(90.196078%,90.196078%,90.196078%);fill-opacity:1;" d="M 652.214844 301.378906 L 505.757812 301.378906 C 501.40625 301.382812 497.882812 304.910156 497.878906 309.265625 L 497.878906 362.671875 C 497.882812 367.023438 501.40625 370.554688 505.757812 370.554688 L 652.214844 370.554688 C 656.5625 370.554688 660.089844 367.023438 660.09375 362.671875 L 660.09375 309.265625 C 660.089844 304.910156 656.5625 301.382812 652.214844 301.378906 Z M 652.214844 301.378906 "/>
<path style=" stroke:none;fill-rule:nonzero;fill:rgb(80%,80%,80%);fill-opacity:1;" d="M 508.457031 301.378906 L 512.488281 301.378906 L 512.488281 370.554688 L 508.457031 370.554688 Z M 508.457031 301.378906 "/>
<path style=" stroke:none;fill-rule:nonzero;fill:rgb(80%,80%,80%);fill-opacity:1;" d="M 525.585938 301.378906 L 529.617188 301.378906 L 529.617188 370.554688 L 525.585938 370.554688 Z M 525.585938 301.378906 "/>
<path style=" stroke:none;fill-rule:nonzero;fill:rgb(80%,80%,80%);fill-opacity:1;" d="M 542.714844 301.378906 L 546.746094 301.378906 L 546.746094 370.554688 L 542.714844 370.554688 Z M 542.714844 301.378906 "/>
<path style=" stroke:none;fill-rule:nonzero;fill:rgb(80%,80%,80%);fill-opacity:1;" d="M 559.84375 301.378906 L 563.871094 301.378906 L 563.871094 370.554688 L 559.84375 370.554688 Z M 559.84375 301.378906 "/>
<path style=" stroke:none;fill-rule:nonzero;fill:rgb(80%,80%,80%);fill-opacity:1;" d="M 576.96875 301.378906 L 581 301.378906 L 581 370.554688 L 576.96875 370.554688 Z M 576.96875 301.378906 "/>
<path style=" stroke:none;fill-rule:nonzero;fill:rgb(80%,80%,80%);fill-opacity:1;" d="M 594.097656 301.378906 L 598.128906 301.378906 L 598.128906 370.554688 L 594.097656 370.554688 Z M 594.097656 301.378906 "/>
<path style=" stroke:none;fill-rule:nonzero;fill:rgb(80%,80%,80%);fill-opacity:1;" d="M 611.226562 301.378906 L 615.257812 301.378906 L 615.257812 370.554688 L 611.226562 370.554688 Z M 611.226562 301.378906 "/>
<path style=" stroke:none;fill-rule:nonzero;fill:rgb(80%,80%,80%);fill-opacity:1;" d="M 628.355469 301.378906 L 632.382812 301.378906 L 632.382812 370.554688 L 628.355469 370.554688 Z M 628.355469 301.378906 "/>
<path style=" stroke:none;fill-rule:nonzero;fill:rgb(80%,80%,80%);fill-opacity:1;" d="M 645.484375 301.378906 L 649.511719 301.378906 L 649.511719 370.554688 L 645.484375 370.554688 Z M 645.484375 301.378906 "/>
<path style=" stroke:none;fill-rule:nonzero;fill:rgb(90.196078%,90.196078%,90.196078%);fill-opacity:1;" d="M 826.515625 231.800781 L 680.0625 231.800781 C 675.710938 231.804688 672.183594 235.332031 672.183594 239.6875 L 672.183594 293.089844 C 672.183594 297.445312 675.710938 300.972656 680.0625 300.976562 L 826.515625 300.976562 C 830.867188 300.972656 834.390625 297.445312 834.394531 293.089844 L 834.394531 239.6875 C 834.390625 235.332031 830.867188 231.804688 826.515625 231.800781 Z M 826.515625 231.800781 "/>
<path style=" stroke:none;fill-rule:nonzero;fill:rgb(80%,80%,80%);fill-opacity:1;" d="M 682.761719 231.800781 L 686.792969 231.800781 L 686.792969 300.976562 L 682.761719 300.976562 Z M 682.761719 231.800781 "/>
<path style=" stroke:none;fill-rule:nonzero;fill:rgb(80%,80%,80%);fill-opacity:1;" d="M 699.890625 231.800781 L 703.917969 231.800781 L 703.917969 300.976562 L 699.890625 300.976562 Z M 699.890625 231.800781 "/>
<path style=" stroke:none;fill-rule:nonzero;fill:rgb(80%,80%,80%);fill-opacity:1;" d="M 717.015625 231.800781 L 721.046875 231.800781 L 721.046875 300.976562 L 717.015625 300.976562 Z M 717.015625 231.800781 "/>
<path style=" stroke:none;fill-rule:nonzero;fill:rgb(80%,80%,80%);fill-opacity:1;" d="M 734.144531 231.800781 L 738.175781 231.800781 L 738.175781 300.976562 L 734.144531 300.976562 Z M 734.144531 231.800781 "/>
<path style=" stroke:none;fill-rule:nonzero;fill:rgb(80%,80%,80%);fill-opacity:1;" d="M 751.273438 231.800781 L 755.304688 231.800781 L 755.304688 300.976562 L 751.273438 300.976562 Z M 751.273438 231.800781 "/>
<path style=" stroke:none;fill-rule:nonzero;fill:rgb(80%,80%,80%);fill-opacity:1;" d="M 768.402344 231.800781 L 772.433594 231.800781 L 772.433594 300.976562 L 768.402344 300.976562 Z M 768.402344 231.800781 "/>
<path style=" stroke:none;fill-rule:nonzero;fill:rgb(80%,80%,80%);fill-opacity:1;" d="M 785.53125 231.800781 L 789.558594 231.800781 L 789.558594 300.976562 L 785.53125 300.976562 Z M 785.53125 231.800781 "/>
<path style=" stroke:none;fill-rule:nonzero;fill:rgb(80%,80%,80%);fill-opacity:1;" d="M 802.65625 231.800781 L 806.6875 231.800781 L 806.6875 300.976562 L 802.65625 300.976562 Z M 802.65625 231.800781 "/>
<path style=" stroke:none;fill-rule:nonzero;fill:rgb(80%,80%,80%);fill-opacity:1;" d="M 819.785156 231.800781 L 823.816406 231.800781 L 823.816406 300.976562 L 819.785156 300.976562 Z M 819.785156 231.800781 "/>
<path style=" stroke:none;fill-rule:nonzero;fill:rgb(19.215686%,18.039216%,50.588235%);fill-opacity:1;" d="M 783.191406 306.421875 L 636.738281 306.421875 C 632.386719 306.425781 628.859375 309.953125 628.859375 314.308594 L 628.859375 367.710938 C 628.859375 372.066406 632.386719 375.59375 636.738281 375.597656 L 783.191406 375.597656 C 787.542969 375.59375 791.070312 372.066406 791.070312 367.710938 L 791.070312 314.308594 C 791.070312 309.953125 787.542969 306.425781 783.191406 306.421875 Z M 783.191406 306.421875 "/>
<path style=" stroke:none;fill-rule:nonzero;fill:rgb(24.705882%,23.921569%,33.72549%);fill-opacity:1;" d="M 639.4375 306.421875 L 643.46875 306.421875 L 643.46875 375.597656 L 639.4375 375.597656 Z M 639.4375 306.421875 "/>
<path style=" stroke:none;fill-rule:nonzero;fill:rgb(24.705882%,23.921569%,33.72549%);fill-opacity:1;" d="M 656.566406 306.421875 L 660.59375 306.421875 L 660.59375 375.597656 L 656.566406 375.597656 Z M 656.566406 306.421875 "/>
<path style=" stroke:none;fill-rule:nonzero;fill:rgb(24.705882%,23.921569%,33.72549%);fill-opacity:1;" d="M 673.695312 306.421875 L 677.722656 306.421875 L 677.722656 375.597656 L 673.695312 375.597656 Z M 673.695312 306.421875 "/>
<path style=" stroke:none;fill-rule:nonzero;fill:rgb(24.705882%,23.921569%,33.72549%);fill-opacity:1;" d="M 690.820312 306.421875 L 694.851562 306.421875 L 694.851562 375.597656 L 690.820312 375.597656 Z M 690.820312 306.421875 "/>
<path style=" stroke:none;fill-rule:nonzero;fill:rgb(24.705882%,23.921569%,33.72549%);fill-opacity:1;" d="M 707.949219 306.421875 L 711.980469 306.421875 L 711.980469 375.597656 L 707.949219 375.597656 Z M 707.949219 306.421875 "/>
<path style=" stroke:none;fill-rule:nonzero;fill:rgb(24.705882%,23.921569%,33.72549%);fill-opacity:1;" d="M 725.078125 306.421875 L 729.109375 306.421875 L 729.109375 375.597656 L 725.078125 375.597656 Z M 725.078125 306.421875 "/>
<path style=" stroke:none;fill-rule:nonzero;fill:rgb(24.705882%,23.921569%,33.72549%);fill-opacity:1;" d="M 742.207031 306.421875 L 746.234375 306.421875 L 746.234375 375.597656 L 742.207031 375.597656 Z M 742.207031 306.421875 "/>
<path style=" stroke:none;fill-rule:nonzero;fill:rgb(24.705882%,23.921569%,33.72549%);fill-opacity:1;" d="M 759.332031 306.421875 L 763.363281 306.421875 L 763.363281 375.597656 L 759.332031 375.597656 Z M 759.332031 306.421875 "/>
<path style=" stroke:none;fill-rule:nonzero;fill:rgb(24.705882%,23.921569%,33.72549%);fill-opacity:1;" d="M 776.460938 306.421875 L 780.492188 306.421875 L 780.492188 375.597656 L 776.460938 375.597656 Z M 776.460938 306.421875 "/>
<path style=" stroke:none;fill-rule:nonzero;fill:rgb(19.215686%,18.039216%,50.588235%);fill-opacity:1;" d="M 598.8125 306.421875 L 452.359375 306.421875 C 448.007812 306.425781 444.484375 309.953125 444.480469 314.308594 L 444.480469 367.710938 C 444.484375 372.066406 448.007812 375.59375 452.359375 375.597656 L 598.8125 375.597656 C 603.164062 375.59375 606.691406 372.066406 606.691406 367.710938 L 606.691406 314.308594 C 606.691406 309.953125 603.164062 306.425781 598.8125 306.421875 Z M 598.8125 306.421875 "/>
<path style=" stroke:none;fill-rule:nonzero;fill:rgb(24.705882%,23.921569%,33.72549%);fill-opacity:1;" d="M 455.058594 306.421875 L 459.089844 306.421875 L 459.089844 375.597656 L 455.058594 375.597656 Z M 455.058594 306.421875 "/>
<path style=" stroke:none;fill-rule:nonzero;fill:rgb(24.705882%,23.921569%,33.72549%);fill-opacity:1;" d="M 472.1875 306.421875 L 476.21875 306.421875 L 476.21875 375.597656 L 472.1875 375.597656 Z M 472.1875 306.421875 "/>
<path style=" stroke:none;fill-rule:nonzero;fill:rgb(24.705882%,23.921569%,33.72549%);fill-opacity:1;" d="M 489.316406 306.421875 L 493.34375 306.421875 L 493.34375 375.597656 L 489.316406 375.597656 Z M 489.316406 306.421875 "/>
<path style=" stroke:none;fill-rule:nonzero;fill:rgb(24.705882%,23.921569%,33.72549%);fill-opacity:1;" d="M 506.441406 306.421875 L 510.472656 306.421875 L 510.472656 375.597656 L 506.441406 375.597656 Z M 506.441406 306.421875 "/>
<path style=" stroke:none;fill-rule:nonzero;fill:rgb(24.705882%,23.921569%,33.72549%);fill-opacity:1;" d="M 523.570312 306.421875 L 527.601562 306.421875 L 527.601562 375.597656 L 523.570312 375.597656 Z M 523.570312 306.421875 "/>
<path style=" stroke:none;fill-rule:nonzero;fill:rgb(24.705882%,23.921569%,33.72549%);fill-opacity:1;" d="M 540.699219 306.421875 L 544.730469 306.421875 L 544.730469 375.597656 L 540.699219 375.597656 Z M 540.699219 306.421875 "/>
<path style=" stroke:none;fill-rule:nonzero;fill:rgb(24.705882%,23.921569%,33.72549%);fill-opacity:1;" d="M 557.828125 306.421875 L 561.859375 306.421875 L 561.859375 375.597656 L 557.828125 375.597656 Z M 557.828125 306.421875 "/>
<path style=" stroke:none;fill-rule:nonzero;fill:rgb(24.705882%,23.921569%,33.72549%);fill-opacity:1;" d="M 574.957031 306.421875 L 578.984375 306.421875 L 578.984375 375.597656 L 574.957031 375.597656 Z M 574.957031 306.421875 "/>
<path style=" stroke:none;fill-rule:nonzero;fill:rgb(24.705882%,23.921569%,33.72549%);fill-opacity:1;" d="M 592.082031 306.421875 L 596.113281 306.421875 L 596.113281 375.597656 L 592.082031 375.597656 Z M 592.082031 306.421875 "/>
<path style=" stroke:none;fill-rule:nonzero;fill:rgb(19.215686%,18.039216%,50.588235%);fill-opacity:1;" d="M 654.226562 236.84375 L 507.773438 236.84375 C 503.421875 236.84375 499.898438 240.375 499.894531 244.726562 L 499.894531 298.132812 C 499.898438 302.488281 503.421875 306.015625 507.773438 306.019531 L 654.226562 306.019531 C 658.578125 306.015625 662.105469 302.488281 662.105469 298.132812 L 662.105469 244.726562 C 662.105469 240.375 658.578125 236.84375 654.226562 236.84375 Z M 654.226562 236.84375 "/>
<path style=" stroke:none;fill-rule:nonzero;fill:rgb(24.705882%,23.921569%,33.72549%);fill-opacity:1;" d="M 510.472656 236.84375 L 514.503906 236.84375 L 514.503906 306.019531 L 510.472656 306.019531 Z M 510.472656 236.84375 "/>
<path style=" stroke:none;fill-rule:nonzero;fill:rgb(24.705882%,23.921569%,33.72549%);fill-opacity:1;" d="M 527.601562 236.84375 L 531.632812 236.84375 L 531.632812 306.019531 L 527.601562 306.019531 Z M 527.601562 236.84375 "/>
<path style=" stroke:none;fill-rule:nonzero;fill:rgb(24.705882%,23.921569%,33.72549%);fill-opacity:1;" d="M 544.730469 236.84375 L 548.757812 236.84375 L 548.757812 306.019531 L 544.730469 306.019531 Z M 544.730469 236.84375 "/>
<path style=" stroke:none;fill-rule:nonzero;fill:rgb(24.705882%,23.921569%,33.72549%);fill-opacity:1;" d="M 561.859375 236.84375 L 565.886719 236.84375 L 565.886719 306.019531 L 561.859375 306.019531 Z M 561.859375 236.84375 "/>
<path style=" stroke:none;fill-rule:nonzero;fill:rgb(24.705882%,23.921569%,33.72549%);fill-opacity:1;" d="M 578.984375 236.84375 L 583.015625 236.84375 L 583.015625 306.019531 L 578.984375 306.019531 Z M 578.984375 236.84375 "/>
<path style=" stroke:none;fill-rule:nonzero;fill:rgb(24.705882%,23.921569%,33.72549%);fill-opacity:1;" d="M 596.113281 236.84375 L 600.144531 236.84375 L 600.144531 306.019531 L 596.113281 306.019531 Z M 596.113281 236.84375 "/>
<path style=" stroke:none;fill-rule:nonzero;fill:rgb(24.705882%,23.921569%,33.72549%);fill-opacity:1;" d="M 613.242188 236.84375 L 617.273438 236.84375 L 617.273438 306.019531 L 613.242188 306.019531 Z M 613.242188 236.84375 "/>
<path style=" stroke:none;fill-rule:nonzero;fill:rgb(24.705882%,23.921569%,33.72549%);fill-opacity:1;" d="M 630.371094 236.84375 L 634.398438 236.84375 L 634.398438 306.019531 L 630.371094 306.019531 Z M 630.371094 236.84375 "/>
<path style=" stroke:none;fill-rule:nonzero;fill:rgb(24.705882%,23.921569%,33.72549%);fill-opacity:1;" d="M 647.496094 236.84375 L 651.527344 236.84375 L 651.527344 306.019531 L 647.496094 306.019531 Z M 647.496094 236.84375 "/>
<path style=" stroke:none;fill-rule:nonzero;fill:rgb(19.215686%,18.039216%,50.588235%);fill-opacity:1;" d="M 402.34375 306.421875 L 255.890625 306.421875 C 251.539062 306.425781 248.015625 309.953125 248.011719 314.308594 L 248.011719 367.710938 C 248.015625 372.066406 251.539062 375.59375 255.890625 375.597656 L 402.34375 375.597656 C 406.695312 375.59375 410.222656 372.066406 410.222656 367.710938 L 410.222656 314.308594 C 410.222656 309.953125 406.695312 306.425781 402.34375 306.421875 Z M 402.34375 306.421875 "/>
<path style=" stroke:none;fill-rule:nonzero;fill:rgb(24.705882%,23.921569%,33.72549%);fill-opacity:1;" d="M 258.589844 306.421875 L 262.621094 306.421875 L 262.621094 375.597656 L 258.589844 375.597656 Z M 258.589844 306.421875 "/>
<path style=" stroke:none;fill-rule:nonzero;fill:rgb(24.705882%,23.921569%,33.72549%);fill-opacity:1;" d="M 275.71875 306.421875 L 279.75 306.421875 L 279.75 375.597656 L 275.71875 375.597656 Z M 275.71875 306.421875 "/>
<path style=" stroke:none;fill-rule:nonzero;fill:rgb(24.705882%,23.921569%,33.72549%);fill-opacity:1;" d="M 292.847656 306.421875 L 296.875 306.421875 L 296.875 375.597656 L 292.847656 375.597656 Z M 292.847656 306.421875 "/>
<path style=" stroke:none;fill-rule:nonzero;fill:rgb(24.705882%,23.921569%,33.72549%);fill-opacity:1;" d="M 309.972656 306.421875 L 314.003906 306.421875 L 314.003906 375.597656 L 309.972656 375.597656 Z M 309.972656 306.421875 "/>
<path style=" stroke:none;fill-rule:nonzero;fill:rgb(24.705882%,23.921569%,33.72549%);fill-opacity:1;" d="M 327.101562 306.421875 L 331.132812 306.421875 L 331.132812 375.597656 L 327.101562 375.597656 Z M 327.101562 306.421875 "/>
<path style=" stroke:none;fill-rule:nonzero;fill:rgb(24.705882%,23.921569%,33.72549%);fill-opacity:1;" d="M 344.230469 306.421875 L 348.261719 306.421875 L 348.261719 375.597656 L 344.230469 375.597656 Z M 344.230469 306.421875 "/>
<path style=" stroke:none;fill-rule:nonzero;fill:rgb(24.705882%,23.921569%,33.72549%);fill-opacity:1;" d="M 361.359375 306.421875 L 365.386719 306.421875 L 365.386719 375.597656 L 361.359375 375.597656 Z M 361.359375 306.421875 "/>
<path style=" stroke:none;fill-rule:nonzero;fill:rgb(24.705882%,23.921569%,33.72549%);fill-opacity:1;" d="M 378.488281 306.421875 L 382.515625 306.421875 L 382.515625 375.597656 L 378.488281 375.597656 Z M 378.488281 306.421875 "/>
<path style=" stroke:none;fill-rule:nonzero;fill:rgb(24.705882%,23.921569%,33.72549%);fill-opacity:1;" d="M 395.613281 306.421875 L 399.644531 306.421875 L 399.644531 375.597656 L 395.613281 375.597656 Z M 395.613281 306.421875 "/>
<path style=" stroke:none;fill-rule:nonzero;fill:rgb(19.215686%,18.039216%,50.588235%);fill-opacity:1;" d="M 438.617188 236.84375 L 292.160156 236.84375 C 287.8125 236.84375 284.285156 240.375 284.28125 244.726562 L 284.28125 298.132812 C 284.285156 302.488281 287.8125 306.015625 292.160156 306.019531 L 438.617188 306.019531 C 442.964844 306.015625 446.492188 302.488281 446.496094 298.132812 L 446.496094 244.726562 C 446.492188 240.375 442.964844 236.84375 438.617188 236.84375 Z M 438.617188 236.84375 "/>
<path style=" stroke:none;fill-rule:nonzero;fill:rgb(24.705882%,23.921569%,33.72549%);fill-opacity:1;" d="M 294.859375 236.84375 L 298.890625 236.84375 L 298.890625 306.019531 L 294.859375 306.019531 Z M 294.859375 236.84375 "/>
<path style=" stroke:none;fill-rule:nonzero;fill:rgb(24.705882%,23.921569%,33.72549%);fill-opacity:1;" d="M 311.988281 236.84375 L 316.019531 236.84375 L 316.019531 306.019531 L 311.988281 306.019531 Z M 311.988281 236.84375 "/>
<path style=" stroke:none;fill-rule:nonzero;fill:rgb(24.705882%,23.921569%,33.72549%);fill-opacity:1;" d="M 329.117188 236.84375 L 333.148438 236.84375 L 333.148438 306.019531 L 329.117188 306.019531 Z M 329.117188 236.84375 "/>
<path style=" stroke:none;fill-rule:nonzero;fill:rgb(24.705882%,23.921569%,33.72549%);fill-opacity:1;" d="M 346.246094 236.84375 L 350.277344 236.84375 L 350.277344 306.019531 L 346.246094 306.019531 Z M 346.246094 236.84375 "/>
<path style=" stroke:none;fill-rule:nonzero;fill:rgb(24.705882%,23.921569%,33.72549%);fill-opacity:1;" d="M 363.375 236.84375 L 367.402344 236.84375 L 367.402344 306.019531 L 363.375 306.019531 Z M 363.375 236.84375 "/>
<path style=" stroke:none;fill-rule:nonzero;fill:rgb(24.705882%,23.921569%,33.72549%);fill-opacity:1;" d="M 380.5 236.84375 L 384.53125 236.84375 L 384.53125 306.019531 L 380.5 306.019531 Z M 380.5 236.84375 "/>
<path style=" stroke:none;fill-rule:nonzero;fill:rgb(24.705882%,23.921569%,33.72549%);fill-opacity:1;" d="M 397.628906 236.84375 L 401.660156 236.84375 L 401.660156 306.019531 L 397.628906 306.019531 Z M 397.628906 236.84375 "/>
<path style=" stroke:none;fill-rule:nonzero;fill:rgb(24.705882%,23.921569%,33.72549%);fill-opacity:1;" d="M 414.757812 236.84375 L 418.789062 236.84375 L 418.789062 306.019531 L 414.757812 306.019531 Z M 414.757812 236.84375 "/>
<path style=" stroke:none;fill-rule:nonzero;fill:rgb(24.705882%,23.921569%,33.72549%);fill-opacity:1;" d="M 431.886719 236.84375 L 435.914062 236.84375 L 435.914062 306.019531 L 431.886719 306.019531 Z M 431.886719 236.84375 "/>
<path style=" stroke:none;fill-rule:nonzero;fill:rgb(24.705882%,23.921569%,33.72549%);fill-opacity:1;" d="M 912.132812 379.683594 C 911.890625 378.8125 911.578125 377.960938 911.199219 377.136719 L 893.21875 338.417969 C 890.523438 332.621094 884.714844 328.910156 878.324219 328.910156 L 804.570312 328.910156 C 798.179688 328.910156 792.371094 332.621094 789.675781 338.417969 L 774.894531 370.253906 L 353.390625 370.253906 L 339.074219 339.429688 C 336.382812 333.628906 330.570312 329.917969 324.179688 329.917969 L 250.429688 329.917969 C 247.597656 329.917969 244.816406 330.652344 242.351562 332.050781 L 229.953125 309.886719 C 228.269531 306.878906 224.765625 305.386719 221.433594 306.257812 C 218.097656 307.128906 215.769531 310.140625 215.769531 313.59375 L 215.769531 487.648438 C 215.769531 498.554688 224.601562 507.398438 235.5 507.398438 L 799.898438 507.398438 C 805.207031 507.398438 810.292969 505.253906 814.003906 501.457031 L 909.414062 403.808594 C 915.796875 397.367188 916.921875 387.382812 912.132812 379.683594 Z M 912.132812 379.683594 "/>
<path style=" stroke:none;fill-rule:nonzero;fill:rgb(100%,100%,100%);fill-opacity:1;" d="M 812.832031 367.734375 L 803.566406 367.734375 C 799.449219 367.726562 796.113281 364.390625 796.109375 360.269531 L 796.109375 349.988281 C 796.113281 345.867188 799.449219 342.527344 803.566406 342.523438 L 812.832031 342.523438 C 816.949219 342.527344 820.285156 345.867188 820.289062 349.988281 L 820.289062 360.269531 C 820.285156 364.390625 816.949219 367.726562 812.832031 367.734375 Z M 812.832031 367.734375 "/>
<path style=" stroke:none;fill-rule:nonzero;fill:rgb(100%,100%,100%);fill-opacity:1;" d="M 846.082031 367.734375 L 836.816406 367.734375 C 832.699219 367.726562 829.363281 364.390625 829.359375 360.269531 L 829.359375 349.988281 C 829.363281 345.867188 832.699219 342.527344 836.816406 342.523438 L 846.082031 342.523438 C 850.199219 342.527344 853.535156 345.867188 853.539062 349.988281 L 853.539062 360.269531 C 853.535156 364.390625 850.199219 367.726562 846.082031 367.734375 Z M 846.082031 367.734375 "/>
<path style=" stroke:none;fill-rule:nonzero;fill:rgb(100%,100%,100%);fill-opacity:1;" d="M 879.328125 367.734375 L 870.0625 367.734375 C 865.945312 367.726562 862.609375 364.390625 862.605469 360.269531 L 862.605469 349.988281 C 862.609375 345.867188 865.945312 342.527344 870.0625 342.523438 L 879.328125 342.523438 C 883.445312 342.527344 886.78125 345.867188 886.785156 349.988281 L 886.785156 360.269531 C 886.78125 364.390625 883.445312 367.726562 879.328125 367.734375 Z M 879.328125 367.734375 "/>
<path style=" stroke:none;fill-rule:nonzero;fill:rgb(100%,100%,100%);fill-opacity:1;" d="M 508.558594 167.0625 L 499.292969 167.0625 C 495.175781 167.054688 491.839844 163.71875 491.832031 159.597656 L 491.832031 149.3125 C 491.839844 145.195312 495.175781 141.855469 499.292969 141.851562 L 508.558594 141.851562 C 512.675781 141.855469 516.011719 145.195312 516.015625 149.3125 L 516.015625 159.597656 C 516.011719 163.71875 512.675781 167.054688 508.558594 167.0625 Z M 508.558594 167.0625 "/>
<path style=" stroke:none;fill-rule:nonzero;fill:rgb(100%,100%,100%);fill-opacity:1;" d="M 541.804688 167.0625 L 532.539062 167.0625 C 528.421875 167.054688 525.085938 163.71875 525.082031 159.597656 L 525.082031 149.3125 C 525.085938 145.195312 528.421875 141.855469 532.539062 141.851562 L 541.804688 141.851562 C 545.921875 141.855469 549.257812 145.195312 549.261719 149.3125 L 549.261719 159.597656 C 549.257812 163.71875 545.921875 167.054688 541.804688 167.0625 Z M 541.804688 167.0625 "/>
<path style=" stroke:none;fill-rule:nonzero;fill:rgb(100%,100%,100%);fill-opacity:1;" d="M 575.054688 167.0625 L 565.789062 167.0625 C 561.671875 167.054688 558.335938 163.71875 558.332031 159.597656 L 558.332031 149.3125 C 558.335938 145.195312 561.671875 141.855469 565.789062 141.851562 L 575.054688 141.851562 C 579.171875 141.855469 582.507812 145.195312 582.511719 149.3125 L 582.511719 159.597656 C 582.507812 163.71875 579.171875 167.054688 575.054688 167.0625 Z M 575.054688 167.0625 "/>
<path style=" stroke:none;fill-rule:nonzero;fill:rgb(100%,100%,100%);fill-opacity:1;" d="M 258.6875 368.742188 L 249.421875 368.742188 C 245.304688 368.738281 241.96875 365.398438 241.964844 361.277344 L 241.964844 350.996094 C 241.96875 346.875 245.304688 343.535156 249.421875 343.53125 L 258.6875 343.53125 C 262.804688 343.535156 266.140625 346.875 266.148438 350.996094 L 266.148438 361.277344 C 266.140625 365.398438 262.804688 368.738281 258.6875 368.742188 Z M 258.6875 368.742188 "/>
<path style=" stroke:none;fill-rule:nonzero;fill:rgb(100%,100%,100%);fill-opacity:1;" d="M 291.9375 368.742188 L 282.671875 368.742188 C 278.554688 368.738281 275.21875 365.398438 275.214844 361.277344 L 275.214844 350.996094 C 275.21875 346.875 278.554688 343.535156 282.671875 343.53125 L 291.9375 343.53125 C 296.054688 343.535156 299.390625 346.875 299.394531 350.996094 L 299.394531 361.277344 C 299.390625 365.398438 296.054688 368.738281 291.9375 368.742188 Z M 291.9375 368.742188 "/>
<path style=" stroke:none;fill-rule:nonzero;fill:rgb(100%,100%,100%);fill-opacity:1;" d="M 325.1875 368.742188 L 315.921875 368.742188 C 311.804688 368.738281 308.46875 365.398438 308.464844 361.277344 L 308.464844 350.996094 C 308.46875 346.875 311.804688 343.535156 315.921875 343.53125 L 325.1875 343.53125 C 329.304688 343.535156 332.640625 346.875 332.644531 350.996094 L 332.644531 361.277344 C 332.640625 365.398438 329.304688 368.738281 325.1875 368.742188 Z M 325.1875 368.742188 "/>
<path style=" stroke:none;fill-rule:nonzero;fill:rgb(19.215686%,18.039216%,50.588235%);fill-opacity:1;" d="M 201.183594 474.941406 C 175.082031 474.316406 147.101562 488.953125 139.675781 514.003906 L 281.359375 508.230469 C 278.679688 506.378906 275.988281 504.546875 273.285156 502.738281 C 251.546875 488.269531 227.285156 475.566406 201.183594 474.941406 Z M 201.183594 474.941406 "/>
<path style=" stroke:none;fill-rule:nonzero;fill:rgb(19.215686%,18.039216%,50.588235%);fill-opacity:1;" d="M 281.359375 508.230469 C 300.199219 521.265625 318.585938 535.179688 339.582031 544.226562 C 391.5625 566.632812 451.40625 556.183594 506.101562 541.621094 C 560.796875 527.058594 616.628906 508.550781 672.730469 516.058594 C 704.539062 520.316406 734.574219 532.773438 765.28125 542.117188 C 795.984375 551.460938 829.023438 557.722656 860.003906 549.332031 C 890.984375 540.941406 918.925781 514.332031 919.738281 482.222656 C 685.855469 438.941406 469.023438 437.65625 281.359375 508.230469 Z M 281.359375 508.230469 "/>
<path style=" stroke:none;fill-rule:nonzero;fill:rgb(99.215686%,39.607843%,51.764706%);fill-opacity:1;" d="M 799.757812 60.632812 C 799.757812 75.503906 787.710938 87.558594 772.855469 87.558594 C 757.996094 87.558594 745.953125 75.503906 745.953125 60.632812 C 745.953125 45.761719 757.996094 33.707031 772.855469 33.707031 C 787.710938 33.707031 799.757812 45.761719 799.757812 60.632812 Z M 799.757812 60.632812 "/>
<path style=" stroke:none;fill-rule:nonzero;fill:rgb(90.196078%,90.196078%,90.196078%);fill-opacity:1;" d="M 833.0625 47.882812 C 831.511719 42.792969 827.089844 39.113281 821.808594 38.515625 C 821.75 38.507812 821.6875 38.507812 821.628906 38.515625 C 821.554688 38.492188 821.480469 38.476562 821.40625 38.464844 C 812.398438 37.292969 802.382812 40.136719 795.644531 46.328125 L 795.570312 46.398438 C 792.097656 49.613281 787.207031 50.800781 782.648438 49.53125 C 781.414062 49.191406 780.136719 49.046875 778.859375 49.113281 C 773.273438 49.484375 768.515625 53.316406 766.96875 58.703125 C 766.796875 59.363281 767.082031 60.054688 767.664062 60.40625 C 768.472656 61.101562 769.4375 61.589844 770.476562 61.839844 C 772.703125 62.3125 774.949219 62.746094 777.195312 63.140625 C 781.589844 63.90625 786.003906 64.527344 790.445312 65.003906 C 793.375 65.316406 796.316406 65.566406 799.261719 65.75 C 805.347656 66.136719 811.460938 66.226562 817.558594 66.035156 C 820.578125 65.933594 823.480469 65.832031 826.242188 64.5 C 828.253906 63.511719 829.972656 62.011719 831.230469 60.15625 C 833.625 56.535156 834.296875 52.042969 833.0625 47.882812 Z M 833.0625 47.882812 "/>
<path style=" stroke:none;fill-rule:nonzero;fill:rgb(90.196078%,90.196078%,90.196078%);fill-opacity:1;" d="M 777.71875 87.109375 C 777.667969 85.980469 777.480469 84.863281 777.15625 83.78125 C 775.597656 78.695312 771.171875 75.015625 765.890625 74.414062 C 765.832031 74.410156 765.777344 74.410156 765.71875 74.414062 C 765.644531 74.390625 765.566406 74.375 765.488281 74.363281 C 760.503906 73.753906 755.445312 74.273438 750.6875 75.886719 C 746.601562 77.21875 742.84375 79.402344 739.65625 82.289062 C 736.1875 85.511719 731.292969 86.699219 726.734375 85.429688 C 725.5 85.089844 724.21875 84.949219 722.941406 85.011719 C 717.351562 85.382812 712.597656 89.21875 711.050781 94.601562 C 710.890625 95.261719 711.171875 95.949219 711.746094 96.304688 C 712.558594 96.996094 713.519531 97.488281 714.558594 97.738281 C 716.792969 98.210938 719.03125 98.644531 721.289062 99.039062 C 725.679688 99.804688 730.09375 100.425781 734.527344 100.90625 C 743.53125 101.871094 752.59375 102.214844 761.648438 101.933594 C 764.660156 101.832031 767.574219 101.730469 770.332031 100.398438 C 772.34375 99.410156 774.058594 97.910156 775.3125 96.054688 C 777.078125 93.421875 777.925781 90.273438 777.71875 87.109375 Z M 777.71875 87.109375 "/>
<path style=" stroke:none;fill-rule:nonzero;fill:rgb(24.705882%,23.921569%,33.72549%);fill-opacity:1;" d="M 787.707031 152.902344 C 787.386719 154.304688 787.609375 155.78125 788.335938 157.023438 C 789.210938 158.320312 790.851562 158.863281 792.328125 158.34375 C 795.144531 157.46875 797.925781 156.441406 800.71875 155.492188 C 801.511719 155.253906 801.976562 154.433594 801.777344 153.632812 C 801.546875 152.832031 800.71875 152.359375 799.917969 152.574219 L 792.933594 154.949219 C 792.40625 155.128906 791.882812 155.332031 791.347656 155.480469 C 791.289062 155.496094 791.085938 155.539062 791.097656 155.539062 C 791.121094 155.535156 791.28125 155.554688 791.105469 155.542969 C 791.003906 155.511719 791.003906 155.519531 791.105469 155.5625 L 790.972656 155.484375 C 791.09375 155.585938 790.957031 155.472656 790.917969 155.429688 C 790.878906 155.390625 790.769531 155.242188 790.855469 155.363281 C 790.792969 155.277344 790.742188 155.183594 790.695312 155.085938 C 790.769531 155.25 790.632812 154.847656 790.621094 154.789062 C 790.566406 154.160156 790.601562 153.523438 790.730469 152.902344 C 790.726562 152.070312 790.050781 151.394531 789.21875 151.390625 C 788.390625 151.410156 787.726562 152.078125 787.707031 152.902344 Z M 787.707031 152.902344 "/>
<path style=" stroke:none;fill-rule:nonzero;fill:rgb(24.705882%,23.921569%,33.72549%);fill-opacity:1;" d="M 675.183594 158.214844 L 682.632812 167.617188 C 683.582031 168.8125 685.613281 167.515625 685.15625 166.144531 C 684.230469 163.335938 687.433594 161.773438 689.648438 161.308594 C 692.582031 160.695312 695.527344 160.796875 698.3125 159.53125 C 700.082031 158.730469 698.546875 156.121094 696.785156 156.921875 C 693.527344 158.398438 689.730469 157.71875 686.429688 159.15625 C 683.480469 160.441406 681.152344 163.644531 682.242188 166.949219 L 684.769531 165.476562 L 677.320312 156.074219 C 676.726562 155.492188 675.777344 155.492188 675.183594 156.074219 C 674.613281 156.675781 674.613281 157.617188 675.183594 158.214844 Z M 675.183594 158.214844 "/>
<path style=" stroke:none;fill-rule:nonzero;fill:rgb(24.705882%,23.921569%,33.72549%);fill-opacity:1;" d="M 660.070312 48.300781 L 667.519531 57.699219 C 668.46875 58.894531 670.5 57.601562 670.046875 56.226562 C 669.117188 53.421875 672.320312 51.855469 674.535156 51.394531 C 677.46875 50.78125 680.414062 50.878906 683.199219 49.617188 C 684.96875 48.816406 683.433594 46.207031 681.675781 47.003906 C 678.414062 48.480469 674.617188 47.804688 671.316406 49.242188 C 668.371094 50.527344 666.039062 53.726562 667.128906 57.03125 L 669.65625 55.558594 L 662.207031 46.160156 C 661.613281 45.574219 660.664062 45.574219 660.070312 46.160156 C 659.5 46.757812 659.5 47.699219 660.070312 48.300781 Z M 660.070312 48.300781 "/>
</g>
</svg>
